<svg version="1" xmlns="http://www.w3.org/2000/svg" width="401.333" height="401.333" viewBox="0 0 301.000000 301.000000"><path d="M146.1 22.1c-4.4 6-16.6 31-20.5 41.9l-3.4 9.5 5.6 6c6.9 7.5 13.2 15.9 18.3 24.7 2.2 3.8 4.2 6.8 4.3 6.8.2 0 1.9-2.6 3.6-5.8 4.7-8.2 11-16.8 17.9-24.4 3.4-3.6 6.1-7.3 6.1-8.1 0-2.8-6.7-19.2-13-31.7-7.7-15.4-12.5-23-14.5-23-.8 0-2.8 1.8-4.4 4.1zM104.1 25.4c-.6.7-2.5 6.7-4.2 13.2l-3.1 11.9 3.3 2.5c1.8 1.4 6 4.7 9.2 7.5 10.3 8.7 8.7 9.2 14.6-5.2 2.9-7.1 5.3-13.3 5.4-14 .3-1.6-20-17.3-22.3-17.3-.9 0-2.3.6-2.9 1.4zM182 31.6c-5.2 4.2-9.8 7.9-10.2 8.2-.6.6 9 26.4 10.4 27.7.3.3 3.1-1.8 6.4-4.7 3.2-2.8 8.1-6.7 10.7-8.6 3.2-2.3 4.6-4 4.3-5.1-.3-.9-1.7-6.3-3.1-12.1-1.5-5.8-3.1-11.1-3.7-11.7-2.1-2.5-5.5-1.1-14.8 6.3zM62.2 42.3c-4 4.8-4.2 43.2-.3 64.7 6.6 37.4 24.7 62.1 47.3 64.7l5.3.6-5.1-5.2c-9.2-9.3-14.2-21.7-16.5-41.4-2.3-19.7 1.2-57.3 5.9-63.6l2.1-2.9-8.1-5.3C83.5 48 71.3 42.1 66.6 41.3c-2.1-.3-3.6 0-4.4 1zM227 43.9c-6.1 2.6-21.1 11.1-25.4 14.4-1.9 1.4-1.9 1.4.1 3.4 4 4 8 36.5 6.8 55.3-.8 13.8-3.9 28.7-7.5 36.6-1.7 3.9-5.2 8.9-8.7 12.6l-5.8 6.1 5.2-.6c8.5-1 15.9-5.1 24.3-13.6 11.9-12.1 18.9-27.9 23-51.7 3.8-21.8 3.7-59.5-.1-64.1-1.7-1.9-4.7-1.6-11.9 1.6z"/><path d="M102.7 65.3c-3.9 3-6.8 37.4-4.8 57.6 2 20.6 6 31.7 14.8 40.4 9 9.1 23.4 14 31.3 10.7 1.6-.7 3-1.4 3-1.7 0-.2-1-2.3-2.2-4.6-2.1-3.8-2.3-5.5-2.2-17.7.1-11.7.4-14.7 2.8-22.5l2.7-8.9-3.6-7.1c-5.5-10.7-16-24.8-26.5-35.5-10.9-11-13-12.5-15.3-10.7z"/><path d="M191.3 67.9c-2.6 2.1-7.8 7.1-11.4 11.2-14.7 16.5-24 31.5-29.5 47.4-2.6 7.3-2.8 9.3-2.9 22.5 0 16.3.9 19.3 7.6 23.8 2.9 2.1 4.3 2.3 9.9 1.9 8.1-.5 15.3-4 22.5-10.8 9.7-9.2 13.7-20.4 15.6-43.8 1.8-22.4-1.3-53.8-5.6-55.5-.8-.3-3.5 1.1-6.2 3.3zM23.2 78.6c-4.8 2.2-2.2 13.5 5.9 26 8.1 12.5 6.5 11.8 17.7 6.8 8.3-3.8 9.7-4.7 9.5-6.7-.1-1.2-.6-7.3-1.1-13.4-.5-6.2-1.1-11.5-1.3-11.7-.7-.7-29.3-1.6-30.7-1zM253.5 78.9l-7 .6-.7 9.4c-.3 5.2-.9 11.4-1.3 13.8-.6 4.3-.6 4.4 3.2 5.9 2.1.8 6.6 2.8 10 4.4l6.3 2.9 4.4-6.2c10-14 14.4-28.1 9.7-30.7-2-1-12.3-1.1-24.6-.1zM50 115.4c-23.6 10.4-42 22.3-42 27.2 0 5.7 22.1 18.1 40.5 22.8 12.7 3.2 43.6 7.3 43.5 5.8-.1-.4-2.3-2.3-5.1-4.2-12.4-8.8-21.3-24.8-28.5-51.7l-.9-3.2-7.5 3.3zM242 117.2c-4.9 19.2-11.8 33.2-21 43.1-3.7 4-7.9 7.9-9.4 8.6-1.4.8-2.6 1.8-2.6 2.3 0 1.6 30.5-2.4 44-5.8 10.5-2.7 29.4-11.5 35.3-16.4 4.5-3.8 5.1-8.4 1.5-11.7-5.8-5.4-36.4-21.9-44-23.8-2.5-.6-2.8-.4-3.8 3.7zM60.2 176.2c-1.8 1.8-1.4 6.6.7 8.7 5.5 5.5 24.9 5.9 45.1 1.1 10.7-2.6 15.9-3.3 25.3-3.5 6.4-.1 11.7-.6 11.8-1.1.1-2-11.7-3.2-33.1-3.3-14.7-.1-25.6-.6-31.5-1.6-11-1.8-16.7-1.9-18.3-.3zM222 176.6c-4.5.7-16.8 1.3-30.5 1.4-21.9.2-34.3 1.4-33.8 3.4.2.5 5.6 1 12 1.1 9.4.2 14.5.9 25.3 3.5 10.9 2.6 15.5 3.3 24 3.3 16.2-.1 23-2.8 23-9.3 0-5.2-5-6.1-20-3.4zM126.7 201c-7.2 2.8-11.2 6.3-14.2 12.5-2.4 4.8-2.7 6.4-2.4 13.3.3 6.4.9 8.6 3 11.8 3.5 5.2 11.3 9.3 25.4 13.3 6.1 1.8 12.1 4 13.5 5 3.4 2.4 3.8 7.2 1 9.9-5.6 5.2-17.5 3.9-29.4-3.3-3.2-1.9-6-3.5-6.2-3.5-.1 0-2.8 3-6 6.7l-5.6 6.7 2.8 2.4c4.2 3.4 13.1 7.8 19.8 9.7 4.4 1.3 8.5 1.6 16.5 1.3 9.5-.3 11.2-.7 16.1-3.3 10.4-5.7 15.6-16.8 13.2-28.3-2.4-11.7-8.1-15.6-33.7-23.1-11.1-3.2-14.4-8-8.9-13.2 4.8-4.5 18.2-2.5 27.4 4.1l2.8 2 4.7-6.6c2.6-3.6 4.8-7.3 4.9-8.1.1-2-10.7-8-17.7-9.9-7.6-2-21.1-1.7-27 .6zM17 243v43h20l.2-26.1.3-26.2 22.3 26.2L82.1 286H102v-86H82l-.2 26.3-.3 26.3-22.4-26.3L36.8 200H17v43zM174.7 200.7c-.3.5 4.1 18.3 9.8 39.8 5.6 21.4 10.5 40.2 10.8 41.7l.7 2.8h20.6l5.9-24.5c3.3-13.5 6.2-24.1 6.6-23.7.4.4 3.3 11.4 6.5 24.5l5.8 23.7h20.2l10.8-41.2c6-22.7 10.9-41.8 11-42.3.1-.6-3.9-1.1-9.7-1.3-9.3-.3-9.8-.2-10.6 2-.4 1.3-3.2 12.8-6.1 25.5-3 12.8-5.6 23.1-5.8 22.8-.3-.2-3.2-11.6-6.6-25.2l-6.1-24.8h-18.9l-6.2 24.8c-3.4 13.7-6.4 25-6.6 25.2-.2.3-1.9-6.2-3.7-14.3-1.8-8.1-4.4-19.5-5.8-25.5l-2.5-10.7H185c-5.5 0-10.1.3-10.3.7z"/></svg>