<svg xmlns="http://www.w3.org/2000/svg" viewBox="0 0 294.8 310.8"><defs><style>.cls-1{fill:#002664}.cls-3{fill:#d7153a}</style></defs><g id="NSW_Government" data-name="NSW Government"><path class="cls-1" d="M144.74 296.9L99 243.18H79.62v84.07H98.5v-53.59l45.61 53.59h19.5v-84.07h-18.87zm181.21-53.7L313.42 297l-13.14-53.82H282.2l-13.37 53.22-12.14-53.21h-19.76l21.87 84h19.45l12.83-53.17 13 53.17h19.1l.19-.72 22-83.33zM77.61 353A13.25 13.25 0 0191 339.51a14.06 14.06 0 0110 3.49l-2.9 3.46a10.2 10.2 0 00-7.29-2.79c-4.79 0-8.44 4.2-8.44 9.18v.15c0 5.35 3.53 9.29 8.85 9.29a10.58 10.58 0 006.28-2v-4.87h-6.62v-4H102v10.93a16.6 16.6 0 01-10.86 4.06c-8.14 0-13.49-5.8-13.49-13.38M104.72 353a13.61 13.61 0 0127.21-.08v.08a13.61 13.61 0 01-27.21.07m22.42 0V353c0-5.06-3.68-9.26-8.85-9.26s-8.77 4.12-8.77 9.18v.08c0 5.06 3.68 9.25 8.84 9.25s8.78-4.13 8.78-9.18" transform="translate(-65.17 -55.62)"/><path class="cls-1" d="M66.43 284.33h5.06l7.84 20 7.81-20h4.94l-10.82 26.21h-4.01l-10.82-26.21zM95.16 284.33h19.3v4.09H99.74v6.77h13.05v4.08H99.74v6.99h14.91v4.09H95.16v-26.02z"/><path class="cls-1" d="M184.25 340h11.59a10.5 10.5 0 017.51 2.6 7.84 7.84 0 012.15 5.61v.08c0 4.27-2.56 6.84-6.2 7.88l7 9.85h-5.39l-6.39-9.07h-5.72V366h-4.57zm11.26 12.9c3.27 0 5.35-1.71 5.35-4.35v-.07c0-2.79-2-4.31-5.39-4.31h-6.65v8.74z" transform="translate(-65.17 -55.62)"/><path class="cls-1" d="M144.38 284.33h4.22l13.95 17.98v-17.98h4.5v26.02h-3.84l-14.34-18.52v18.52h-4.49v-26.02zM171.69 284.33h4.87l7.91 12.3 7.92-12.3h4.87v26.02h-4.57v-18.66l-8.22 12.26h-.15l-8.13-12.19v18.59h-4.5v-26.02zM201.62 284.33h19.29v4.09h-14.72v6.77h13.05v4.08h-13.05v6.99h14.91v4.09h-19.48v-26.02zM225.6 284.33h4.24l13.94 17.98v-17.98h4.5v26.02h-3.83l-14.35-18.52v18.52h-4.5v-26.02zM260.15 288.57h-8.25v-4.24h21.11v4.24h-8.25v21.78h-4.61v-21.78z"/><path class="cls-1" d="M168.8 315.55l11.1-13.3c7.69 6.34 15.74 10.37 25.5 10.37 7.69 0 12.33-3.05 12.33-8.05v-.25c0-4.76-2.93-7.2-17.21-10.86-17.2-4.39-28.3-9.15-28.3-26.11v-.24c0-15.49 12.45-25.74 29.9-25.74a49.48 49.48 0 0131.72 10.86l-9.76 14.15c-7.57-5.25-15-8.42-22.22-8.42s-11 3.29-11 7.44v.24c0 5.61 3.65 7.44 18.42 11.22 17.33 4.51 27.09 10.74 27.09 25.62v.24c0 17-12.93 26.48-31.36 26.48a54.36 54.36 0 01-36.21-13.65z" transform="translate(-65.17 -55.62)"/></g><g id="Waratah"><path d="M360 184.44c-.07-3.88-3.06-6.47-4.77-7.91s-9.68-7.22-24.61-15.89c1.15-1.5 1.65-2.3 2.74-3.84 5.39-7.6 10.32-15.46 12.7-24.56.6-2.29 1.66-7.2.75-9.72a9.51 9.51 0 00-6.56-5.74c-6.38-1.73-29.36-.32-31.22-.15a135.85 135.85 0 00-2.65-29.54c-.63-2.57-1.73-6.51-4.55-7.68-4.92-1.94-10.33.74-14.68 2.74-5.93 2.73-10.32 4.91-16.66 8.19-2.91-10.29-6-20-7-22.43-.78-1.79-1.93-5-5.37-5.71s-5.43.73-7.16 1.79c-3 1.86-16.21 11.19-20.59 14.82-3-4.92-4.78-8.4-7.61-12.87-1.09-1.72-3.92-6.38-6-8.44a5.45 5.45 0 00-8.26 0c-2.05 2.07-4.88 6.72-6 8.44-2.82 4.47-4.64 7.94-7.61 12.87-4.38-3.63-17.56-13-20.59-14.82-1.73-1.06-3.66-2.46-7.16-1.79s-4.59 3.92-5.37 5.71c-1.07 2.45-4.14 12.14-7 22.43-6.34-3.28-10.75-5.47-16.68-8.2-4.35-2-9.74-4.67-14.66-2.73-2.82 1.17-3.92 5.11-4.55 7.68a135.84 135.84 0 00-2.65 29.54c-1.85-.17-24.83-1.58-31.22.15a9.51 9.51 0 00-6.56 5.74c-.92 2.51.14 7.42.75 9.72 2.38 9.1 7.31 17 12.7 24.56 1.1 1.55 1.59 2.34 2.74 3.84-14.94 8.67-22.9 14.46-24.61 15.89s-4.7 4-4.77 7.91a7.77 7.77 0 001.72 5.34c2.86 4 18.71 19.25 54.23 24.69-6.09 4.44-4.87 10-4 12.18.71 1.75 2.43 3.77 5.9 5.67 5.57 3.06 12.48 3.77 18.35 3.88 8.42.16 17.28-1.61 25.51-3.28 7.86-1.6 16.07-4.83 24.1-5.21a113.32 113.32 0 0114.08.25c1.65.13 3.78.39 7.52.39 3.32 0 5.79-.27 7.42-.4a113.32 113.32 0 0114.08-.25c8 .38 16.25 3.61 24.1 5.21 8.23 1.67 17.09 3.44 25.51 3.28 5.87-.11 12.78-.82 18.35-3.88 3.47-1.9 5.19-3.93 5.9-5.67.9-2.22 2.12-7.74-4-12.18 35.52-5.44 51.38-20.67 54.23-24.69a7.77 7.77 0 001.74-5.33z" transform="translate(-65.17 -55.62)" fill="#fff"/><path class="cls-3" d="M266.93 108.29a223.93 223.93 0 014.51 43c0 14.76-1.8 27.86-5.33 38.95a48 48 0 01-16.72 23.72c15.19-.49 28.81-9.93 38.45-26.71 12.56-22 15.24-49.57 15.64-69.75.45-23-1.27-28.4-1.94-30.62s-1.59-3.13-3.57-3.09c-3.87.07-20.21 7.36-35.49 18.28 2.2 1.12 3.7 3.09 4.45 6.22z" transform="translate(-65.17 -55.62)"/><path class="cls-3" d="M225.37 217c10.86-.23 28.78-9 35-28.69 3.32-10.32 4.47-20.6 5-37.09a184.65 184.65 0 00-3.61-39.91c-.31-1.46-.85-3.73-2.68-4.1s-3.4 1.54-4.46 2.44-27.62 24.14-39.21 52.86c-2.12 5.95-5.83 12.07-5.95 30.45 0 6.62.61 14 3.92 18.18a14.06 14.06 0 0011.99 5.86zM265.44 92.86c-3-13.72-5.83-23.07-5.86-23.12-.63-1.67-1.52-2.95-2.83-3.17-1.48-.25-2.38.15-3.83 1.21-1.88 1.37-15.09 11.81-19.41 15.38 4.43 8.21 8 18.42 10.89 26.55 6.53-5.14 10.45-9.71 21.04-16.85zM341.91 127.2a7.26 7.26 0 00-.63-4.21c-.85-1.24-1.93-1.82-4.61-2.16-5.37-.67-27.66 1.43-27.66 1.43a196.08 196.08 0 01-2.37 26.74c6.45 2.46 12.49 5 19.21 8.3 13.15-16.52 15.79-27.11 16.06-30.1zM354.05 184.53c-.1-2.18-1.1-4-4.66-6.36a219.92 219.92 0 00-43.84-23c-2.68 13.5-6.88 25.32-12.48 35.11-5.77 10.14-13.23 18.1-21.73 23.22 25.67-1.74 47.23-5.72 62.76-13.21 17.73-8.6 20.08-12.91 19.95-15.76zM297.4 217.59c-4.26.12-7.56.82-14.65 2a75.57 75.57 0 01-15.42 1.11c-3.09-.08-10-.15-10-.15-3.23-.07-6.9-.16-10.57-.16-7.64 0-17.52.31-26.2 2.73-.46.14-1 .29-.95.82s.73.43 1.4.44 7.06-.44 10.2-.44c11.36 0 19.12 2 26.62 3.86 7.05 1.78 13.72 3.47 23 3.47 9.77 0 18.23-1.25 21.38-4.74a6.09 6.09 0 001.56-5.33c-.77-2.52-2.53-3.7-6.37-3.61zM137.3 187.22c9.64 16.77 23.26 26.21 38.45 26.71A48 48 0 01159 190.2c-3.53-11.09-5.33-24.19-5.33-38.95a223.91 223.91 0 014.51-43c.74-3.13 2.25-5.1 4.44-6.25-15.45-11.44-31.62-18.17-35.45-18.24-2 0-2.9.85-3.57 3.09s-2.39 7.65-1.94 30.62c.39 20.18 3.08 47.77 15.64 69.75z" transform="translate(-65.17 -55.62)"/><path class="cls-3" d="M170.52 109.7c-1.07-.9-2.76-2.78-4.46-2.44s-2.37 2.63-2.68 4.1a184.65 184.65 0 00-3.61 39.91c.53 16.48 1.68 26.77 5 37.09 6.22 19.71 24.34 28.57 35.23 28.57a17.73 17.73 0 006.09-1.09 14 14 0 002.71-1.47 22.3 22.3 0 01-2.16-3.64c-2.12-4.41-3.2-9.77-3.25-16.39a83.53 83.53 0 016.45-32.54c-11.57-28.74-38.26-51.2-39.32-52.1zM212.57 153.19c7.68-15.9 19-29 27.42-37.45-5.28-19.44-20.46-47.12-25.22-53.88-.69-1-1.24-1.64-2.23-1.64s-1.48.65-2.17 1.64c-4.76 6.76-19.94 34.43-25.22 53.88 8.45 8.45 19.74 21.55 27.42 37.45zM191.63 83.16c-4.32-3.58-17.53-14-19.41-15.38-1.45-1.06-2.35-1.45-3.83-1.21-1.3.22-2.19 1.49-2.83 3.17 0 .06-2.87 9.4-5.86 23.12 10.59 7.16 14.51 11.72 21 16.86 2.95-8.14 6.5-18.36 10.93-26.56zM99.28 157.3c6.72-3.3 12.72-5.84 19.21-8.3a196.12 196.12 0 01-2.37-26.74s-22.29-2.1-27.66-1.43c-2.68.33-3.76.92-4.61 2.16a7.26 7.26 0 00-.63 4.21c.28 2.99 2.97 13.58 16.06 30.1zM132.07 190.24c-5.6-9.8-9.79-21.61-12.48-35.11a219.92 219.92 0 00-43.84 23c-3.56 2.38-4.57 4.17-4.66 6.36-.13 2.85 2.22 7.16 20 15.71 15.52 7.49 37.09 11.47 62.76 13.21-8.54-5.07-16.01-13.03-21.78-23.17zM204.6 223.12c-8.69-2.42-18.56-2.73-26.2-2.73-3.67 0-7.33.08-10.57.16 0 0-6.92.07-10 .15a75.57 75.57 0 01-15.42-1.11c-7.09-1.18-10.39-1.88-14.65-2-3.84-.09-5.63 1.09-6.34 3.59a6.09 6.09 0 001.56 5.33c3.15 3.49 11.61 4.74 21.38 4.74 9.26 0 15.93-1.68 23-3.47 7.5-1.9 15.26-3.86 26.62-3.86 3.14 0 9.52.45 10.2.44s1.35 0 1.4-.44-.52-.66-.98-.8z" transform="translate(-65.17 -55.62)"/></g></svg>